# xmcd CD database file
#
# Track frame offsets:
#	150
#	14036
#	27521
#	43932
#	58539
#	71072
#	84803
#	99937
#	114810
#	129161
#	141478
#	154593
#	169541
#	182120
#
# Disc length: 2615 seconds
#
# Revision: 0
# Processed by: cddbd v1.5.2PL0 Copyright (c) Steve Scherf et al.
# Submitted via: CDex 1.51
#
DISCID=b30a350e
DTITLE=Trafton Harvey - Thanks
DYEAR=1998
DGENRE=Country
TTITLE0=Saltwater Rain
TTITLE1=Left Side Of A Heartache
TTITLE2=A Ramblin' Rose
TTITLE3=While There's Still Love
TTITLE4=The Road Less Traveled
TTITLE5=If I Had My Life To Live Over
TTITLE6=Late Night Picture Show
TTITLE7=What Makes It Country
TTITLE8=You're In Love
TTITLE9=Just What She Deserves
TTITLE10=Two Hours Cryin'
TTITLE11=Walk Before I Crawl
TTITLE12=No Love Lost Here
TTITLE13=Every Man Needs A Rock
EXTD=YEAR: 1998
EXTT0=
EXTT1=
EXTT2=
EXTT3=
EXTT4=
EXTT5=
EXTT6=
EXTT7=
EXTT8=
EXTT9=
EXTT10=
EXTT11=
EXTT12=
EXTT13=
PLAYORDER=
